<svg xmlns="http://www.w3.org/2000/svg" xmlns:xlink="http://www.w3.org/1999/xlink" width="50px" height="41px" viewBox="0 0 50 41" version="1.1">
<g id="surface1">
<path style=" stroke:none;fill-rule:nonzero;fill:#9c2350;fill-opacity:1;" d="M 26.378906 0.835938 C 26.265625 1.042969 25.449219 4.082031 24.582031 7.582031 C 23.71875 11.101562 22.949219 13.976562 22.882812 13.976562 C 22.820312 13.976562 21.507812 13.175781 19.953125 12.195312 L 17.148438 10.394531 L 17.148438 5.367188 L 15.0625 4.046875 C 13.910156 3.324219 12.882812 2.730469 12.757812 2.730469 C 12.644531 2.730469 12.46875 2.828125 12.386719 2.925781 C 12.292969 3.035156 11.667969 4.804688 10.992188 6.859375 L 9.757812 10.570312 L 8.476562 11.726562 C 7.148438 12.933594 6.9375 13.382812 7.5 13.847656 C 7.964844 14.25 31.234375 28.917969 32.050781 29.335938 C 33.765625 30.203125 36.554688 30.605469 38.011719 30.203125 C 38.332031 30.105469 38.8125 29.785156 39.085938 29.464844 C 39.503906 29 39.582031 28.773438 39.582031 28.050781 C 39.582031 26.074219 37.46875 23.296875 34.597656 21.496094 C 33.71875 20.949219 32.933594 20.417969 32.851562 20.324219 C 32.773438 20.226562 32.628906 18.011719 32.53125 15.40625 C 32.308594 8.902344 32.050781 7.261719 30.832031 4.722656 C 30.113281 3.195312 28.992188 1.785156 27.820312 0.933594 C 27.066406 0.386719 26.683594 0.371094 26.378906 0.835938 Z M 28.285156 3.164062 C 29.664062 4.609375 30.5625 7.003906 30.929688 10.21875 C 31.074219 11.535156 31.425781 19.296875 31.347656 19.390625 C 31.332031 19.40625 29.742188 18.410156 27.804688 17.175781 C 25.542969 15.726562 24.292969 14.84375 24.3125 14.683594 C 24.359375 14.042969 27.339844 2.410156 27.4375 2.410156 C 27.5 2.410156 27.882812 2.746094 28.285156 3.164062 Z M 14.648438 5.253906 L 15.867188 6.023438 L 15.898438 8.59375 L 15.945312 11.164062 L 23.71875 16.097656 C 27.996094 18.796875 32.355469 21.558594 33.429688 22.234375 C 34.742188 23.054688 35.671875 23.777344 36.332031 24.484375 C 37.484375 25.722656 38.347656 27.34375 38.269531 28.132812 C 38.222656 28.644531 38.171875 28.695312 37.417969 28.886719 C 36.8125 29.03125 36.347656 29.046875 35.449219 28.902344 C 33.667969 28.644531 32.691406 28.242188 30.640625 26.941406 C 29.617188 26.285156 24.328125 22.941406 18.910156 19.519531 C 13.492188 16.097656 9.023438 13.253906 8.972656 13.222656 C 8.925781 13.175781 9.34375 12.722656 9.902344 12.210938 L 10.914062 11.277344 L 12.035156 7.886719 C 12.660156 6.023438 13.238281 4.5 13.300781 4.5 C 13.382812 4.5 13.992188 4.835938 14.648438 5.253906 Z M 14.648438 5.253906 "/>
<path style=" stroke:none;fill-rule:nonzero;fill:#9c2350;fill-opacity:1;" d="M 23.1875 19.246094 C 22.707031 19.777344 22.867188 20.035156 24.054688 20.742188 L 25.175781 21.414062 L 25.511719 21.078125 C 25.960938 20.628906 25.816406 20.371094 24.742188 19.679688 C 23.542969 18.910156 23.507812 18.894531 23.1875 19.246094 Z M 23.1875 19.246094 "/>
<path style=" stroke:none;fill-rule:nonzero;fill:#9c2350;fill-opacity:1;" d="M 25.992188 20.917969 C 25.542969 21.367188 25.785156 21.816406 26.746094 22.394531 C 27.757812 23.023438 28.027344 23.085938 28.332031 22.78125 C 28.734375 22.378906 28.527344 22.011719 27.53125 21.367188 C 26.472656 20.675781 26.28125 20.628906 25.992188 20.917969 Z M 25.992188 20.917969 "/>
<path style=" stroke:none;fill-rule:nonzero;fill:#9c2350;fill-opacity:1;" d="M 28.6875 22.734375 C 28.367188 23.117188 28.574219 23.503906 29.488281 24.148438 C 30.5625 24.902344 31.167969 24.917969 31.167969 24.179688 C 31.167969 23.777344 31.027344 23.601562 30.289062 23.101562 C 29.328125 22.460938 28.992188 22.363281 28.6875 22.734375 Z M 28.6875 22.734375 "/>
<path style=" stroke:none;fill-rule:nonzero;fill:#9c2350;fill-opacity:1;" d="M 0.511719 33.449219 C 0.242188 33.722656 0.242188 40.179688 0.511719 40.453125 C 0.65625 40.597656 6.332031 40.648438 25.03125 40.648438 C 48.910156 40.648438 49.34375 40.648438 49.519531 40.339844 C 49.757812 39.875 49.726562 33.691406 49.488281 33.449219 C 49.214844 33.175781 0.785156 33.175781 0.511719 33.449219 Z M 48.238281 36.953125 L 48.238281 39.359375 L 24.96875 39.328125 L 1.683594 39.28125 L 1.632812 36.902344 L 1.585938 34.542969 L 48.238281 34.542969 Z M 48.238281 36.953125 "/>
</g>
</svg>