<svg xmlns="http://www.w3.org/2000/svg" xmlns:xlink="http://www.w3.org/1999/xlink" width="50px" height="41px" viewBox="0 0 50 41" version="1.1">
<g id="surface1">
<path style=" stroke:none;fill-rule:nonzero;fill:#9c2350;fill-opacity:1;" d="M 10.753906 4.113281 C 10.273438 4.242188 9.582031 4.515625 9.230469 4.707031 C 8.027344 5.367188 8.027344 5.367188 13.429688 10.601562 L 18.285156 15.3125 L 17.835938 15.566406 C 16.859375 16.164062 12.339844 18.476562 12.179688 18.476562 C 12.082031 18.476562 11.152344 17.976562 10.128906 17.367188 C 9.101562 16.773438 8.140625 16.242188 8.011719 16.195312 C 7.882812 16.144531 7.019531 16.5 6.089844 16.964844 C 3.75 18.171875 3.367188 18.425781 3.367188 18.796875 C 3.367188 18.972656 4.457031 20.339844 5.976562 22.042969 L 8.605469 24.980469 L 9.039062 26.765625 C 9.40625 28.242188 9.550781 28.582031 9.839844 28.726562 C 10.160156 28.871094 10.960938 28.484375 15.882812 25.882812 C 19.007812 24.226562 24.679688 21.238281 28.476562 19.230469 C 32.292969 17.238281 35.722656 15.390625 36.105469 15.117188 C 37.210938 14.363281 38.703125 12.644531 39.277344 11.488281 C 40.511719 8.949219 39.550781 7.566406 36.457031 7.421875 C 34.3125 7.324219 33.011719 7.664062 30.5625 8.917969 L 28.507812 9.976562 L 25.832031 8.578125 C 19.34375 5.171875 18.109375 4.609375 15.914062 4.113281 C 14.488281 3.792969 11.9375 3.792969 10.753906 4.113281 Z M 17.082031 5.863281 C 18.605469 6.363281 20.59375 7.324219 25.753906 10.074219 C 26.394531 10.410156 26.921875 10.714844 26.921875 10.765625 C 26.921875 10.8125 26.296875 11.164062 25.511719 11.566406 C 24.742188 11.96875 23.09375 12.820312 21.84375 13.480469 L 19.566406 14.683594 L 14.984375 10.203125 C 10.722656 6.039062 10.417969 5.703125 10.769531 5.574219 C 12.402344 4.964844 14.710938 5.0625 17.082031 5.863281 Z M 37.964844 9.046875 C 39.132812 9.589844 37.902344 12.082031 35.578125 13.847656 C 35.273438 14.074219 31.585938 16.066406 27.402344 18.234375 C 23.222656 20.417969 17.742188 23.296875 15.242188 24.613281 C 12.742188 25.929688 10.640625 26.957031 10.578125 26.878906 C 10.511719 26.8125 10.335938 26.234375 10.175781 25.59375 C 9.917969 24.46875 9.855469 24.386719 7.742188 21.976562 C 6.554688 20.628906 5.464844 19.40625 5.351562 19.261719 C 5.160156 19.039062 5.273438 18.925781 6.457031 18.316406 L 7.804688 17.609375 L 9.984375 18.859375 L 12.164062 20.113281 L 15.496094 18.394531 C 17.324219 17.449219 19.199219 16.46875 19.632812 16.226562 C 22.964844 14.410156 32.644531 9.414062 33.207031 9.238281 C 34.792969 8.691406 37.035156 8.59375 37.964844 9.046875 Z M 37.964844 9.046875 "/>
<path style=" stroke:none;fill-rule:nonzero;fill:#9c2350;fill-opacity:1;" d="M 29.617188 14.136719 C 28.460938 14.75 28.222656 15.328125 28.992188 15.726562 C 29.457031 15.984375 31.203125 15.085938 31.347656 14.523438 C 31.425781 14.203125 31.378906 14.027344 31.167969 13.863281 C 30.769531 13.574219 30.671875 13.589844 29.617188 14.136719 Z M 29.617188 14.136719 "/>
<path style=" stroke:none;fill-rule:nonzero;fill:#9c2350;fill-opacity:1;" d="M 26.859375 15.617188 C 25.832031 16.179688 25.464844 16.691406 25.800781 17.109375 C 25.914062 17.238281 26.152344 17.351562 26.347656 17.351562 C 26.8125 17.335938 28.207031 16.546875 28.476562 16.113281 C 28.6875 15.808594 28.667969 15.726562 28.382812 15.4375 C 28.1875 15.246094 27.996094 15.101562 27.933594 15.101562 C 27.851562 15.101562 27.386719 15.34375 26.859375 15.617188 Z M 26.859375 15.617188 "/>
<path style=" stroke:none;fill-rule:nonzero;fill:#9c2350;fill-opacity:1;" d="M 23.796875 17.238281 C 22.964844 17.6875 22.835938 17.816406 22.835938 18.21875 C 22.835938 18.972656 23.347656 19.039062 24.519531 18.445312 C 25.609375 17.882812 25.929688 17.320312 25.402344 16.917969 C 24.984375 16.628906 24.886719 16.644531 23.796875 17.238281 Z M 23.796875 17.238281 "/>
<path style=" stroke:none;fill-rule:nonzero;fill:#9c2350;fill-opacity:1;" d="M 0.511719 32.324219 C 0.242188 32.597656 0.242188 39.054688 0.511719 39.328125 C 0.785156 39.601562 49.214844 39.601562 49.488281 39.328125 C 49.757812 39.054688 49.757812 32.597656 49.488281 32.324219 C 49.214844 32.050781 0.785156 32.050781 0.511719 32.324219 Z M 48.238281 35.828125 L 48.238281 38.238281 L 24.953125 38.203125 L 1.683594 38.15625 L 1.632812 36.003906 C 1.617188 34.816406 1.632812 33.738281 1.667969 33.625 C 1.730469 33.449219 6.074219 33.417969 25 33.417969 L 48.238281 33.417969 Z M 48.238281 35.828125 "/>
</g>
</svg>