<?xml version="1.0" standalone="no"?>
<!DOCTYPE svg PUBLIC "-//W3C//DTD SVG 20010904//EN"
 "http://www.w3.org/TR/2001/REC-SVG-20010904/DTD/svg10.dtd">
<svg version="1.0" xmlns="http://www.w3.org/2000/svg"
 width="312.000000pt" height="255.000000pt" viewBox="0 0 312.000000 255.000000"
 preserveAspectRatio="xMidYMid meet">

<g transform="translate(0.000000,255.000000) scale(0.100000,-0.100000)"
fill="#000000" stroke="none">
<path d="M1646 2498 c-7 -13 -58 -202 -112 -420 -54 -219 -102 -398 -106 -398
-4 0 -86 50 -183 111 l-175 112 0 157 0 156 -130 82 c-72 45 -136 82 -144 82
-7 0 -18 -6 -23 -12 -6 -7 -45 -117 -87 -245 l-77 -231 -80 -72 c-83 -75 -96
-103 -61 -132 29 -25 1481 -938 1532 -964 107 -54 281 -79 372 -54 20 6 50 26
67 46 26 29 31 43 31 88 0 123 -132 296 -311 408 -55 34 -104 67 -109 73 -5 6
-14 144 -20 306 -14 405 -30 507 -106 665 -45 95 -115 183 -188 236 -47 34
-71 35 -90 6z m119 -145 c86 -90 142 -239 165 -439 9 -82 31 -565 26 -571 -1
-1 -100 61 -221 138 -141 90 -219 145 -218 155 3 40 189 764 195 764 4 0 28
-21 53 -47z m-851 -130 l76 -48 2 -160 3 -160 485 -307 c267 -168 539 -340
606 -382 82 -51 140 -96 181 -140 72 -77 126 -178 121 -227 -3 -32 -6 -35 -53
-47 -38 -9 -67 -10 -123 -1 -111 16 -172 41 -300 122 -64 41 -394 249 -732
462 -338 213 -617 390 -620 392 -3 3 23 31 58 63 l63 58 70 211 c39 116 75
211 79 211 5 0 43 -21 84 -47z"/>
<path d="M1447 1352 c-30 -33 -20 -49 54 -93 l70 -42 21 21 c28 28 19 44 -48
87 -75 48 -77 49 -97 27z"/>
<path d="M1622 1248 c-28 -28 -13 -56 47 -92 63 -39 80 -43 99 -24 25 25 12
48 -50 88 -66 43 -78 46 -96 28z"/>
<path d="M1790 1135 c-20 -24 -7 -48 50 -88 67 -47 105 -48 105 -2 0 25 -9 36
-55 67 -60 40 -81 46 -100 23z"/>
<path d="M32 468 c-17 -17 -17 -419 0 -436 9 -9 363 -12 1530 -12 1490 0 1517
0 1528 19 15 29 13 414 -2 429 -17 17 -3039 17 -3056 0z m2978 -218 l0 -150
-1452 2 -1453 3 -3 148 -3 147 1456 0 1455 0 0 -150z"/>
</g>
</svg>
