<?xml version="1.0" standalone="no"?>
<!DOCTYPE svg PUBLIC "-//W3C//DTD SVG 20010904//EN"
 "http://www.w3.org/TR/2001/REC-SVG-20010904/DTD/svg10.dtd">
<svg version="1.0" xmlns="http://www.w3.org/2000/svg"
 width="312.000000pt" height="255.000000pt" viewBox="0 0 312.000000 255.000000"
 preserveAspectRatio="xMidYMid meet">

<g transform="translate(0.000000,255.000000) scale(0.100000,-0.100000)"
fill="#000000" stroke="none">
<path d="M671 2294 c-30 -8 -73 -25 -95 -37 -75 -41 -75 -41 262 -367 l303
-293 -28 -16 c-61 -37 -343 -181 -353 -181 -6 0 -64 31 -128 69 -64 37 -124
70 -132 73 -8 3 -62 -19 -120 -48 -146 -75 -170 -91 -170 -114 0 -11 68 -96
163 -202 l164 -183 27 -111 c23 -92 32 -113 50 -122 20 -9 70 15 377 177 195
103 549 289 786 414 238 124 452 239 476 256 69 47 162 154 198 226 77 158 17
244 -176 253 -134 6 -215 -15 -368 -93 l-128 -66 -167 87 c-405 212 -482 247
-619 278 -89 20 -248 20 -322 0z m395 -109 c95 -31 219 -91 541 -262 40 -21
73 -40 73 -43 0 -3 -39 -25 -88 -50 -48 -25 -151 -78 -229 -119 l-142 -75
-286 279 c-266 259 -285 280 -263 288 102 38 246 32 394 -18z m1303 -198 c73
-34 -4 -189 -149 -299 -19 -14 -249 -138 -510 -273 -261 -136 -603 -315 -759
-397 -156 -82 -287 -146 -291 -141 -4 4 -15 40 -25 80 -16 70 -20 75 -152 225
-74 84 -142 160 -149 169 -12 14 -5 21 69 59 l84 44 136 -78 136 -78 208 107
c114 59 231 120 258 135 208 113 812 424 847 435 99 34 239 40 297 12z"/>
<path d="M1848 1670 c-72 -38 -87 -74 -39 -99 29 -16 138 40 147 75 5 20 2 31
-11 41 -25 18 -31 17 -97 -17z"/>
<path d="M1676 1578 c-64 -35 -87 -67 -66 -93 7 -8 22 -15 34 -15 29 1 116 50
133 77 13 19 12 24 -6 42 -12 12 -24 21 -28 21 -5 0 -34 -15 -67 -32z"/>
<path d="M1485 1477 c-52 -28 -60 -36 -60 -61 0 -47 32 -51 105 -14 68 35 88
70 55 95 -26 18 -32 17 -100 -20z"/>
<path d="M32 538 c-17 -17 -17 -419 0 -436 17 -17 3039 -17 3056 0 17 17 17
419 0 436 -17 17 -3039 17 -3056 0z m2978 -218 l0 -150 -1453 2 -1452 3 -3
134 c-1 74 0 141 2 148 4 11 275 13 1456 13 l1450 0 0 -150z"/>
</g>
</svg>
